#!OML:ASF X:\für Bonn\!DataBase\2005_08_11_Bastian_Final\c3d\Bastian.ASF
:FULLY-SPECIFIED
:DEGREES
78
root -18.5983 16.0411 -19.6281 165.996 126.101 -559.146
lowerback 16.5639 -3.36708 13.0792
upperback 8.17149 -1.87767 6.53746
thorax -0.617561 -0.518831 -0.0350916
lowerneck -14.17 0.321692 -6.57158
upperneck -5.04923 1.57345 1.79849
head 0.733335 0.993334 1.78369
rclavicle -3.85642e-014 -1.03368e-014
rhumerus -37.7024 17.606 -83.6713
rradius 73.7826
rwrist 7.83275
rhand -16.4808 13.3258
rfingers 7.12502
rthumb 9.7363 -16.4291
lclavicle -3.85642e-014 -1.03368e-014
lhumerus -37.3056 -26.0005 103.336
lradius 66.0376
lwrist 9.24113
lhand -13.2398 -8.53995
lfingers 7.12502
lthumb 12.862 21.0437
rfemur -27.295 -2.69852 30.6837
rtibia 59.9384
rfoot -29.2425 -1.01541
rtoes -15.7304
lfemur -17.5718 2.20463 -3.60964
ltibia 92.4233
lfoot -2.9871 -3.04448
ltoes -23.8163
79
root -18.4417 16.0532 -19.4653 165.835 126.282 -559.125
lowerback 16.8903 -3.08734 13.0523
upperback 8.14552 -1.45384 6.52139
thorax -0.778715 -0.317871 -0.104537
lowerneck -14.3188 0.300162 -6.68355
upperneck -4.86041 1.57413 1.67943
head 0.820012 0.990092 1.76919
rclavicle -8.82604e-014 -6.36111e-015
rhumerus -36.4358 18.9128 -83.7457
rradius 75.8062
rwrist 7.23496
rhand -16.9358 13.8153
rfingers 7.12502
rthumb 9.2973 -15.9597
lclavicle -8.82604e-014 -6.36111e-015
lhumerus -38.0789 -25.5578 102.946
lradius 64.9405
lwrist 9.19534
lhand -13.7217 -8.03063
lfingers 7.12502
lthumb 12.3975 21.5817
rfemur -25.8861 -2.78465 30.8579
rtibia 59.4497
rfoot -29.7997 -1.0947
rtoes -15.4456
lfemur -20.0635 2.98982 -3.70304
ltibia 94.6171
lfoot -3.17965 -3.45774
ltoes -23.7616
80
root -18.2823 16.0679 -19.3019 165.702 126.443 -559.111
lowerback 17.1703 -2.80846 13.0336
upperback 8.0911 -1.03845 6.48791
thorax -0.947174 -0.122781 -0.199567
lowerneck -14.4387 0.246705 -6.86489
upperneck -4.68167 1.54129 1.63502
head 0.900084 0.972203 1.78972
rclavicle 6.36111e-015 8.82604e-014
rhumerus -35.2693 20.1203 -83.7567
rradius 77.9235
rwrist 6.58472
rhand -17.1601 14.435
rfingers 7.12502
rthumb 9.08086 -15.3495
lclavicle 6.36111e-015 8.82604e-014
lhumerus -38.9708 -25.1964 102.52
lradius 64.0477
lwrist 9.4571
lhand -13.9959 -7.77686
lfingers 7.12502
lthumb 12.1331 21.8513
rfemur -24.4569 -2.94823 31.0226
rtibia 58.8321
rfoot -30.3538 -1.14038
rtoes -15.1869
lfemur -22.5732 3.80056 -3.86621
ltibia 96.5352
lfoot -3.43057 -3.75763
ltoes -24.1488
81
root -18.1177 16.0921 -19.1355 165.576 126.562 -559.074
lowerback 17.4086 -2.52228 13.0044
upperback 8.0395 -0.625062 6.439
thorax -1.09035 0.0721891 -0.308499
lowerneck -14.5295 0.174581 -7.04431
upperneck -4.55238 1.48247 1.59615
head 0.960374 0.942368 1.80938
rclavicle 5.1684e-015 -3.81667e-014
rhumerus -34.1606 21.1149 -83.681
rradius 80.1555
rwrist 6.04281
rhand -17.1104 15.0902
rfingers 7.12502
rthumb 9.12886 -14.6922
lclavicle 5.1684e-015 -3.81667e-014
lhumerus -39.9286 -24.9518 102.083
lradius 63.2253
lwrist 9.99609
lhand -14.265 -7.90573
lfingers 7.12502
lthumb 11.8735 21.7376
rfemur -22.9113 -3.24241 31.1429
rtibia 58.0528
rfoot -30.9668 -1.13374
rtoes -15.1212
lfemur -25.0335 4.64079 -4.15606
ltibia 98.1279
lfoot -3.73431 -4.01698
ltoes -24.9925
82
root -17.948 16.1266 -18.9658 165.503 126.641 -558.968
lowerback 17.612 -2.22751 12.9743
upperback 7.9803 -0.211121 6.33297
thorax -1.22263 0.267647 -0.481133
lowerneck -14.595 0.0784628 -7.18623
upperneck -4.42532 1.38395 1.58739
head 1.01784 0.892448 1.82983
rclavicle -2.78299e-015 -9.54166e-015
rhumerus -33.1069 21.8465 -83.5681
rradius 82.484
rwrist 5.67921
rhand -16.701 15.7185
rfingers 7.12502
rthumb 9.52381 -14.0462
lclavicle -2.78299e-015 -9.54166e-015
lhumerus -40.8965 -24.8894 101.611
lradius 62.4313
lwrist 10.8278
lhand -14.3793 -8.25767
lfingers 7.12502
lthumb 11.7634 21.392
rfemur -21.2455 -3.58382 31.1857
rtibia 57.0949
rfoot -31.5312 -1.07645
rtoes -15.1645
lfemur -27.3982 5.41873 -4.58924
ltibia 99.3687
lfoot -4.07956 -4.29292
ltoes -24.6612
83
root -17.7741 16.1666 -18.7955 165.47 126.682 -558.833
lowerback 17.784 -1.9207 12.9612
upperback 7.8959 0.215804 6.21269
thorax -1.36239 0.46814 -0.682738
lowerneck -14.5737 -0.0566152 -7.38946
upperneck -4.33542 1.23567 1.63439
head 1.05087 0.820008 1.87557
rclavicle -9.26337e-014 -5.32743e-014
rhumerus -32.1579 22.3849 -83.3738
rradius 84.9135
rwrist 5.55926
rhand -16.1006 16.1663
rfingers 7.12502
rthumb 10.1031 -13.5712
lclavicle -9.26337e-014 -5.32743e-014
lhumerus -41.9109 -24.9676 101.192
lradius 61.7676
lwrist 12.0007
lhand -14.4025 -8.74795
lfingers 7.12502
lthumb 11.741 20.903
rfemur -19.5186 -4.00828 31.1619
rtibia 55.9748
rfoot -31.9169 -0.946772
rtoes -15.3019
lfemur -29.7035 6.08032 -5.15649
ltibia 100.267
lfoot -4.46725 -4.69563
ltoes -23.19
84
root -17.5976 16.2088 -18.6244 165.434 126.69 -558.707
lowerback 17.9375 -1.62167 12.9556
upperback 7.79201 0.630347 6.07375
thorax -1.51217 0.661044 -0.907827
lowerneck -14.4626 -0.190269 -7.52193
upperneck -4.28078 1.07003 1.65653
head 1.05797 0.737649 1.89769
rclavicle 1.07344e-014 -2.38542e-015
rhumerus -31.371 22.7985 -83.1878
rradius 87.3846
rwrist 5.62111
rhand -15.4412 16.5807
rfingers 7.12502
rthumb 10.7392 -13.1248
lclavicle 1.07344e-014 -2.38542e-015
lhumerus -42.9924 -25.1958 100.788
lradius 61.4639
lwrist 13.4826
lhand -14.3002 -9.05984
lfingers 7.12502
lthumb 11.8396 20.5855
rfemur -17.7111 -4.42854 31.1109
rtibia 54.6963
rfoot -32.1697 -0.840845
rtoes -15.6831
lfemur -31.9175 6.60609 -5.8133
ltibia 100.783
lfoot -4.94905 -5.26997
ltoes -21.9483
